<svg width="8" height="8" viewBox="0 0 8 8" fill="none" xmlns="http://www.w3.org/2000/svg">
<rect width="8" height="8" fill="#E5E5E5"/>
<rect x="-400" y="-153" width="1920" height="2552" fill="white"/>
<g opacity="0.8">
<path fill-rule="evenodd" clip-rule="evenodd" d="M6.08523 3.81559L2.34968 0.0802145C2.29622 0.026813 2.23471 0 2.16527 0C2.09581 0 2.03432 0.026813 1.98089 0.0802145L1.58016 0.481034C1.52664 0.534464 1.5 0.595839 1.5 0.665413C1.5 0.734986 1.52664 0.796361 1.58016 0.849791L4.73045 4.00008L1.58016 7.15043C1.52664 7.20386 1.5 7.26535 1.5 7.33473C1.5 7.40427 1.52664 7.46576 1.58016 7.51919L1.98092 7.91987C2.03435 7.97336 2.09584 8 2.1653 8C2.23473 8 2.29622 7.9733 2.34968 7.91987L6.08503 4.18446C6.13843 4.13106 6.16516 4.06955 6.16516 4.00008C6.16516 3.93062 6.13863 3.86914 6.08523 3.81559Z" fill="#A0A0A0"/>
</g>
</svg>
