<svg width="32" height="32" viewBox="0 0 32 32" fill="none" xmlns="http://www.w3.org/2000/svg">
<path fill-rule="evenodd" clip-rule="evenodd" d="M1.77778 0H30.2222C31.2041 0 32 1.02335 32 2.28571C32 3.54808 31.2041 4.57143 30.2222 4.57143H1.77778C0.795938 4.57143 0 3.54808 0 2.28571C0 1.02335 0.795938 0 1.77778 0ZM1.77778 13.7143H30.2222C31.2041 13.7143 32 14.7377 32 16C32 17.2624 31.2041 18.2857 30.2222 18.2857H1.77778C0.795938 18.2857 0 17.2624 0 16C0 14.7377 0.795938 13.7143 1.77778 13.7143ZM1.77778 27.4286H30.2222C31.2041 27.4286 32 28.4519 32 29.7143C32 30.9766 31.2041 32 30.2222 32H1.77778C0.795938 32 0 30.9766 0 29.7143C0 28.4519 0.795938 27.4286 1.77778 27.4286Z" fill="white"/>
</svg>
