<svg width="114" height="40" viewBox="0 0 114 40" fill="none" xmlns="http://www.w3.org/2000/svg">
<path d="M35.5469 25.1949H30.4711V21.4554H45.2739V25.1949H40.2193V38.1014H35.5469V25.1949Z" fill="white"/>
<path d="M49.2241 37.2893C47.8224 36.5414 46.7393 35.5157 45.9322 34.1909C45.1464 32.8661 44.7429 31.3916 44.7429 29.7463C44.7429 28.1009 45.1464 26.6265 45.9322 25.3017C46.718 23.9768 47.8224 22.9511 49.2241 22.2033C50.6258 21.4554 52.1974 21.0921 53.939 21.0921C55.6805 21.0921 57.2521 21.4554 58.6538 22.2033C60.0555 22.9511 61.1386 23.9768 61.9457 25.3017C62.7315 26.6265 63.135 28.1009 63.135 29.7463C63.135 31.3916 62.7315 32.8661 61.9457 34.1909C61.1599 35.5157 60.0555 36.5414 58.6538 37.2893C57.2521 38.0372 55.6805 38.4004 53.939 38.4004C52.1974 38.4218 50.6258 38.0372 49.2241 37.2893ZM56.2114 33.9345C56.891 33.5285 57.422 32.9729 57.8255 32.2677C58.229 31.5412 58.4202 30.7292 58.4202 29.789C58.4202 28.8488 58.229 28.0368 57.8255 27.3103C57.422 26.5838 56.891 26.0282 56.2114 25.6436C55.5318 25.2376 54.7885 25.0452 53.939 25.0452C53.1107 25.0452 52.3461 25.2376 51.6665 25.6436C50.9869 26.0496 50.4559 26.6051 50.0524 27.3103C49.6489 28.0368 49.4577 28.8488 49.4577 29.789C49.4577 30.7292 49.6489 31.5412 50.0524 32.2677C50.4559 32.9943 50.9869 33.5498 51.6665 33.9345C52.3461 34.3405 53.0894 34.5328 53.939 34.5328C54.7672 34.5114 55.5318 34.3191 56.2114 33.9345Z" fill="white"/>
<path d="M64.3881 21.4554H72.2036C74.0089 21.4554 75.623 21.7973 77.0247 22.4811C78.4264 23.1649 79.5095 24.1265 80.2741 25.3872C81.0386 26.6479 81.4209 28.101 81.4209 29.7891C81.4209 31.4772 81.0386 32.9302 80.2741 34.191C79.5095 35.4517 78.4264 36.4133 77.0247 37.0971C75.623 37.7808 74.0089 38.1227 72.2036 38.1227H64.3881V21.4554ZM72.0125 34.3405C73.4354 34.3405 74.5611 33.9345 75.4318 33.1226C76.2813 32.3106 76.7273 31.1994 76.7273 29.7677C76.7273 28.336 76.3026 27.2249 75.4318 26.4129C74.5823 25.6009 73.4354 25.1949 72.0125 25.1949H69.0604V34.3192H72.0125V34.3405Z" fill="white"/>
<path d="M93.5479 34.8534H86.5606L85.2651 38.08H80.4866L87.7924 21.4554H92.4011L99.7282 38.08H94.8647L93.5479 34.8534ZM92.1887 31.3917L90.0649 26.071L87.9411 31.3917H92.1887Z" fill="white"/>
<path d="M107.671 32.1182V38.08H102.999V32.0541L96.691 21.4554H101.618L105.547 28.0583L109.476 21.4554H114L107.671 32.1182Z" fill="white"/>
<path d="M29.218 38.4219C30.0508 38.4219 30.7259 37.7426 30.7259 36.9047C30.7259 36.0668 30.0508 35.3876 29.218 35.3876C28.3852 35.3876 27.7101 36.0668 27.7101 36.9047C27.7101 37.7426 28.3852 38.4219 29.218 38.4219Z" fill="url(#paint0_linear)"/>
<path d="M7.36407 16.5407C0.759061 13.25 -2.17178 6.56169 1.79972 2.67266C7.27912 -2.71216 22.3793 0.215298 21.1263 9.87378C20.6803 8.50621 19.5547 5.72833 16.5814 4.33939C13.247 2.7795 9.19054 3.22823 7.34284 5.32233C5.26151 7.65148 6.59951 11.1131 10.2312 12.9295L11.8665 13.7628C14.8823 15.28 15.0947 17.6305 13.5231 19.6391L7.36407 16.5407Z" fill="url(#paint1_linear)"/>
<path d="M24.9497 25.3231L21.2967 23.5068L7.36463 16.5407C3.24446 14.4894 0.71714 11.2841 0.249905 8.12163C0.249905 8.05752 0.228667 7.90795 0.228667 7.69426C0.164953 -0.660752 20.2136 -2.0497 21.1056 9.87383C17.8562 1.41197 9.1911 3.22828 7.32215 5.32238C5.24083 7.65152 6.57882 11.1132 10.2105 12.9295L15.5837 15.6219C18.6845 17.1604 23.4418 20.1947 24.9497 25.3231Z" fill="url(#paint2_linear)"/>
<path d="M24.9497 25.323L21.2968 23.5067L7.36467 16.5406C3.2445 14.4893 0.717183 11.284 0.249947 8.12151C0.249947 8.0574 0.228709 7.90783 0.228709 7.69414C0.0163296 -2.04981 21.8915 -1.13098 21.1056 9.87371C17.9624 1.71101 9.21238 3.42048 7.3222 5.32226C5.09221 7.56593 6.57887 11.1131 10.2106 12.9294L15.5838 15.6218C18.6845 17.1603 23.4418 20.1946 24.9497 25.323Z" fill="url(#paint3_linear)"/>
<path d="M24.9491 25.3231L10.2099 17.951C4.36949 15.0449 3.37131 7.88652 7.55519 5.13C5.09158 7.6301 6.79062 11.1986 10.2312 12.9081L18.6839 17.139C25.119 20.3656 26.5207 23.3358 24.9491 25.3231Z" fill="url(#paint4_linear)"/>
<path d="M19.3211 18.6775L10.8684 14.4466C8.78705 13.3996 7.4703 11.8397 7.10925 10.2371C7.76763 11.2841 8.80829 12.2243 10.2312 12.9295L18.684 17.1604C23.1652 19.4041 25.2253 21.5195 25.5013 23.2717C24.5669 21.8614 22.5917 20.3015 19.3211 18.6775Z" fill="url(#paint5_linear)"/>
<path d="M6.5145 6.0061C5.07032 9.33956 6.85431 14.1688 11.2081 16.3911L18.5989 20.0878L22.0819 21.8187C22.6766 22.1178 23.25 22.4597 23.7597 22.8443C24.8641 23.6777 25.5225 24.5752 24.9491 25.3231L10.2099 17.951C4.90041 15.3013 3.6049 9.18998 6.5145 6.0061Z" fill="url(#paint6_linear)"/>
<path d="M32.4887 18.0151C31.6604 17.8014 31.002 17.5023 30.4711 17.139L31.4693 14.874C31.9577 15.1945 32.5099 15.4509 33.1471 15.6432C33.7842 15.8356 34.4213 15.9424 35.0372 15.9424C36.2053 15.9424 36.8 15.6432 36.8 15.0449C36.8 14.7244 36.6301 14.5107 36.2903 14.3611C35.9505 14.2116 35.4195 14.062 34.6762 13.891C33.8691 13.7201 33.1895 13.5278 32.6373 13.3141C32.0852 13.1218 31.6179 12.7799 31.2356 12.3312C30.8534 11.8824 30.641 11.2841 30.641 10.5148C30.641 9.85243 30.8109 9.25412 31.1932 8.71991C31.5542 8.1857 32.0852 7.75834 32.8072 7.45918C33.5293 7.13866 34.4001 6.98907 35.4408 6.98907C36.1628 6.98907 36.8637 7.07455 37.5433 7.22413C38.2442 7.39507 38.8388 7.63013 39.3698 7.92929L38.4353 10.2157C37.3947 9.66012 36.3965 9.38233 35.4408 9.38233C34.8249 9.38233 34.3789 9.4678 34.1028 9.66012C33.8267 9.85243 33.678 10.0875 33.678 10.3653C33.678 10.6644 33.8479 10.8781 34.1665 11.0277C34.5063 11.1773 35.0372 11.3268 35.7593 11.4764C36.5876 11.6474 37.2672 11.8397 37.8194 12.0534C38.3716 12.2457 38.8388 12.5876 39.2211 13.0149C39.6246 13.4637 39.8158 14.062 39.8158 14.8099C39.8158 15.4723 39.6246 16.0492 39.2636 16.5835C38.9025 17.1177 38.3504 17.545 37.6283 17.8442C36.9062 18.1647 36.0354 18.3143 34.9948 18.3143C34.1665 18.357 33.317 18.2288 32.4887 18.0151Z" fill="white"/>
<path d="M42.8953 17.716C42.1732 17.3527 41.5997 16.8185 41.1962 16.1561C40.7927 15.4937 40.5803 14.7458 40.5803 13.8911C40.5803 13.0577 40.7927 12.3098 41.1962 11.6474C41.5997 10.985 42.1732 10.4721 42.874 10.0875C43.5961 9.72423 44.4032 9.53192 45.3164 9.53192C46.2296 9.53192 47.0367 9.72423 47.7588 10.0875C48.4808 10.4508 49.0543 10.9636 49.4366 11.626C49.8401 12.2884 50.0312 13.0363 50.0312 13.8697C50.0312 14.7031 49.8401 15.4723 49.4366 16.1347C49.033 16.7972 48.4808 17.31 47.7588 17.6946C47.0367 18.0579 46.2296 18.2502 45.3164 18.2502C44.4244 18.2716 43.6174 18.0792 42.8953 17.716ZM46.5907 15.3868C46.9305 15.0236 47.0791 14.5321 47.0791 13.8911C47.0791 13.2714 46.9092 12.7799 46.5907 12.4166C46.2509 12.0534 45.8473 11.8824 45.3164 11.8824C44.8067 11.8824 44.3819 12.0534 44.0421 12.4166C43.7023 12.7799 43.5536 13.25 43.5536 13.8911C43.5536 14.5321 43.7235 15.0236 44.0421 15.3868C44.3819 15.7501 44.7854 15.921 45.3164 15.921C45.8261 15.921 46.2509 15.7287 46.5907 15.3868Z" fill="white"/>
<path d="M54.6186 10.002H56.615V12.2243H54.7035V18.1434H51.7515V12.2243H50.5197V10.002H51.7515V9.78835C51.7515 8.76268 52.0488 7.95068 52.6647 7.35237C53.2806 6.75405 54.1301 6.4549 55.2345 6.4549C55.5955 6.4549 55.9778 6.49763 56.3176 6.56174C56.6787 6.62584 56.9548 6.75405 57.1884 6.88226L56.4663 8.97636C56.169 8.80541 55.8929 8.71994 55.5743 8.71994C55.2557 8.71994 55.0221 8.80542 54.8522 8.99773C54.6823 9.19005 54.5973 9.46783 54.5973 9.83109V10.002H54.6186Z" fill="white"/>
<path d="M63.496 17.78C63.2411 17.9296 62.9438 18.0578 62.5828 18.1433C62.2217 18.2288 61.8394 18.2715 61.4359 18.2715C60.3315 18.2715 59.5033 17.9937 58.9086 17.4595C58.3139 16.9253 58.0166 16.1133 58.0166 15.0449V12.2029H56.7848V9.9806H58.0166V7.77966H60.9687V9.9806H62.8801V12.2029H60.9687V15.0022C60.9687 15.3013 61.0536 15.5364 61.2023 15.7073C61.3722 15.8783 61.5846 15.9637 61.8394 15.9637C62.1792 15.9637 62.4766 15.8783 62.7314 15.7073L63.496 17.78Z" fill="white"/>
<path d="M66.0233 18.0151C65.1951 17.8014 64.5367 17.5023 64.0057 17.139L65.0039 14.874C65.4924 15.1945 66.0446 15.4509 66.6817 15.6432C67.3189 15.8356 67.956 15.9424 68.5719 15.9424C69.74 15.9424 70.3347 15.6432 70.3347 15.0449C70.3347 14.7244 70.1648 14.5107 69.8249 14.3611C69.4851 14.2116 68.9542 14.062 68.2109 13.891C67.4038 13.7201 66.7242 13.5278 66.172 13.3141C65.6198 13.1218 65.1526 12.7799 64.7703 12.3312C64.388 11.8824 64.1756 11.2841 64.1756 10.5148C64.1756 9.85243 64.3455 9.25412 64.7278 8.71991C65.0889 8.1857 65.6198 7.75834 66.3419 7.45918C67.064 7.13866 67.9348 6.98907 68.9754 6.98907C69.6975 6.98907 70.3984 7.07455 71.078 7.22413C71.7788 7.39507 72.3735 7.63013 72.9045 7.92929L71.97 10.2157C70.9293 9.66012 69.9311 9.38233 68.9754 9.38233C68.3595 9.38233 67.9135 9.4678 67.6374 9.66012C67.3613 9.85243 67.2127 10.0875 67.2127 10.3653C67.2127 10.6644 67.3826 10.8781 67.7011 11.0277C68.041 11.1773 68.5719 11.3268 69.294 11.4764C70.1223 11.6474 70.8019 11.8397 71.3541 12.0534C71.9063 12.2457 72.3735 12.5876 72.7558 13.0149C73.1593 13.4637 73.3504 14.062 73.3504 14.8099C73.3504 15.4723 73.1593 16.0492 72.7983 16.5835C72.4372 17.1177 71.885 17.545 71.1629 17.8442C70.4408 18.1647 69.5701 18.3143 68.5294 18.3143C67.7012 18.357 66.8516 18.2288 66.0233 18.0151Z" fill="white"/>
<path d="M88.387 9.68146L85.3924 18.1219H82.5465L80.9749 13.5278L79.3396 18.1219H76.4937L73.4991 9.68146H76.2813L78.0016 14.7885L79.7856 9.68146H82.2917L84.0332 14.8312L85.8172 9.68146H88.387Z" fill="white"/>
<path d="M89.4489 8.2925C89.1091 7.99334 88.9604 7.60872 88.9604 7.18135C88.9604 6.73262 89.1304 6.36935 89.4489 6.0702C89.7887 5.77104 90.2135 5.62146 90.7444 5.62146C91.2754 5.62146 91.7214 5.77104 92.04 6.04883C92.3798 6.32661 92.5284 6.71125 92.5284 7.13861C92.5284 7.60872 92.3585 7.99334 92.04 8.2925C91.7001 8.59166 91.2754 8.76261 90.7444 8.76261C90.2135 8.74124 89.7887 8.59166 89.4489 8.2925ZM89.279 9.68144H92.2311V18.1219H89.279V9.68144Z" fill="white"/>
<path d="M95.1195 18.0365C94.4398 17.8656 93.8877 17.6732 93.4841 17.3955L94.3761 15.3655C94.7584 15.6005 95.2044 15.7928 95.7354 15.9424C96.2663 16.092 96.776 16.1561 97.307 16.1561C97.7742 16.1561 98.114 16.1134 98.3264 16.0065C98.5175 15.8997 98.6237 15.7715 98.6237 15.5792C98.6237 15.3868 98.4963 15.2586 98.2627 15.1732C98.0291 15.0877 97.6255 15.0236 97.1158 14.9381C96.4362 14.8526 95.884 14.7458 95.3955 14.6176C94.9283 14.4894 94.5248 14.2329 94.185 13.8697C93.8452 13.5064 93.6753 12.9936 93.6753 12.3525C93.6753 11.8183 93.8452 11.3269 94.1637 10.9209C94.4823 10.4935 94.9495 10.173 95.5655 9.91655C96.1814 9.6815 96.9247 9.55328 97.7742 9.55328C98.3901 9.55328 98.9848 9.61739 99.5794 9.7456C100.174 9.87381 100.684 10.0448 101.087 10.2798L100.195 12.2884C99.452 11.8824 98.645 11.6688 97.7742 11.6688C97.307 11.6688 96.9672 11.7329 96.7548 11.8397C96.5424 11.9465 96.4362 12.0961 96.4362 12.2671C96.4362 12.4594 96.5636 12.609 96.7973 12.6731C97.0309 12.7372 97.4344 12.8226 97.9653 12.9081C98.6662 13.015 99.2396 13.1218 99.6856 13.2714C100.132 13.3996 100.535 13.656 100.875 14.0193C101.215 14.3825 101.385 14.874 101.385 15.5151C101.385 16.0493 101.215 16.5194 100.896 16.9467C100.578 17.3741 100.11 17.6946 99.4732 17.9297C98.8573 18.1647 98.0928 18.2929 97.222 18.2929C96.4787 18.2716 95.7991 18.1861 95.1195 18.0365Z" fill="white"/>
<path d="M103.572 18.0365C102.892 17.8656 102.34 17.6732 101.937 17.3955L102.829 15.3655C103.211 15.6005 103.657 15.7928 104.188 15.9424C104.719 16.092 105.229 16.1561 105.76 16.1561C106.227 16.1561 106.567 16.1134 106.779 16.0065C106.97 15.8997 107.076 15.7715 107.076 15.5792C107.076 15.3868 106.949 15.2586 106.715 15.1732C106.482 15.0877 106.078 15.0236 105.568 14.9381C104.889 14.8526 104.337 14.7458 103.848 14.6176C103.381 14.4894 102.977 14.2329 102.638 13.8697C102.298 13.5064 102.128 12.9936 102.128 12.3525C102.128 11.8183 102.298 11.3269 102.616 10.9209C102.935 10.4935 103.402 10.173 104.018 9.91655C104.634 9.6815 105.377 9.55328 106.227 9.55328C106.843 9.55328 107.437 9.61739 108.032 9.7456C108.627 9.87381 109.136 10.0448 109.54 10.2798L108.627 12.2671C107.883 11.8611 107.076 11.6474 106.206 11.6474C105.738 11.6474 105.399 11.7115 105.186 11.8183C104.974 11.9252 104.868 12.0747 104.868 12.2457C104.868 12.438 104.995 12.5876 105.229 12.6517C105.462 12.7158 105.866 12.8013 106.397 12.8867C107.098 12.9936 107.671 13.1004 108.117 13.25C108.563 13.3782 108.967 13.6346 109.306 13.9979C109.646 14.3612 109.816 14.8526 109.816 15.4937C109.816 16.0279 109.646 16.498 109.328 16.9254C109.009 17.3527 108.542 17.6732 107.905 17.9083C107.289 18.1434 106.524 18.2716 105.653 18.2716C104.953 18.2716 104.252 18.1861 103.572 18.0365Z" fill="white"/>
<path d="M112.492 18.3569C113.325 18.3569 114 17.6777 114 16.8398C114 16.0019 113.325 15.3226 112.492 15.3226C111.659 15.3226 110.984 16.0019 110.984 16.8398C110.984 17.6777 111.659 18.3569 112.492 18.3569Z" fill="url(#paint7_linear)"/>
<path d="M18.153 23.4641C24.7368 26.7762 27.6464 33.4858 23.6749 37.3535C18.1743 42.7169 3.07408 39.7467 4.3696 30.0883C4.79436 31.4558 5.91997 34.2337 8.89329 35.644C12.2064 37.2253 16.2841 36.7765 18.1318 34.6824C20.2131 32.3533 18.8964 28.8916 15.2859 27.0753L13.6506 26.242C10.6348 24.7248 10.4224 22.3529 12.0153 20.3657L18.153 23.4641Z" fill="url(#paint8_linear)"/>
<path d="M18.153 23.4641C24.7368 26.7762 27.6464 33.4858 23.6749 37.3535C18.1743 42.7169 3.07408 39.7467 4.3696 30.0883C4.79436 31.4558 5.91997 34.2337 8.89329 35.644C12.2064 37.2253 16.2841 36.7765 18.1318 34.6824C20.2131 32.3533 18.8964 28.8916 15.2859 27.0753L13.6506 26.242C10.6348 24.7248 10.4224 22.3529 12.0153 20.3657L18.153 23.4641Z" fill="url(#paint9_linear)"/>
<path d="M0.610352 14.6176L4.24205 16.4553L18.1529 23.4641C22.2519 25.5368 24.7792 28.7421 25.2252 31.9046C25.2252 31.9687 25.2464 32.1183 25.2464 32.332C25.2676 40.687 5.21899 42.0118 4.36947 30.0883C7.59765 38.5715 16.2627 36.7766 18.1317 34.6825C20.213 32.3533 18.8963 28.8917 15.2858 27.0753L9.93383 24.3616C6.83308 22.8017 2.09701 19.7674 0.610352 14.6176Z" fill="url(#paint10_linear)"/>
<path d="M0.610352 14.6176L4.24205 16.4553L18.1529 23.4641C22.2519 25.5368 24.7792 28.7421 25.2252 31.9046C25.2252 31.9687 25.2464 32.1183 25.2464 32.332C25.4375 42.0759 3.56243 41.0716 4.36947 30.0883C7.47022 38.2723 16.2415 36.5843 18.1317 34.6825C20.3617 32.4388 18.8963 28.8917 15.2858 27.0753L9.93383 24.3616C6.83308 22.8017 2.09701 19.7674 0.610352 14.6176Z" fill="url(#paint11_linear)"/>
<path d="M0.610499 14.6176L15.3284 22.0324C21.1689 24.9599 22.1246 32.1183 17.9195 34.8534C20.4043 32.3533 18.7053 28.7848 15.2859 27.054L6.83323 22.7803C0.419356 19.5751 -0.982349 16.6049 0.610499 14.6176Z" fill="url(#paint12_linear)"/>
<path d="M6.19612 21.3057L14.6488 25.5794C16.7302 26.6265 18.0469 28.2077 18.3867 29.8103C17.7496 28.7633 16.6877 27.8017 15.286 27.0966L6.83326 22.8229C2.35205 20.5579 0.313203 18.4424 0.0371094 16.6688C0.971581 18.0791 2.94671 19.6604 6.19612 21.3057Z" fill="url(#paint13_linear)"/>
<path d="M18.9602 33.9987C20.4256 30.6652 18.6416 25.836 14.309 23.5923L6.93947 19.8742L3.47768 18.122C2.88301 17.8229 2.30959 17.481 1.79988 17.0963C0.71674 16.263 0.0371246 15.3655 0.631788 14.6176L15.3497 22.0324C20.6167 24.7035 21.9122 30.8362 18.9602 33.9987Z" fill="url(#paint14_linear)"/>
<defs>
<linearGradient id="paint0_linear" x1="30.6867" y1="35.461" x2="27.2976" y2="36.4538" gradientUnits="userSpaceOnUse">
<stop stop-color="#FFC000"/>
<stop offset="1" stop-color="#FF8A00"/>
</linearGradient>
<linearGradient id="paint1_linear" x1="16.2636" y1="8.48152" x2="1.90776" y2="11.8591" gradientUnits="userSpaceOnUse">
<stop stop-color="#FFC000"/>
<stop offset="0.0892206" stop-color="#FFBA00"/>
<stop offset="0.6812" stop-color="#FF9700"/>
<stop offset="1" stop-color="#FF8A00"/>
</linearGradient>
<linearGradient id="paint2_linear" x1="7.86181" y1="0.084267" x2="17.4075" y2="28.8628" gradientUnits="userSpaceOnUse">
<stop stop-color="#E240B4"/>
<stop offset="0.9946" stop-color="#4227CA"/>
</linearGradient>
<linearGradient id="paint3_linear" x1="19.5383" y1="3.57994" x2="10.5311" y2="19.0842" gradientUnits="userSpaceOnUse">
<stop stop-color="#FFC000"/>
<stop offset="0.3889" stop-color="#FFA400"/>
<stop offset="0.7495" stop-color="#FF9100"/>
<stop offset="1" stop-color="#FF8A00"/>
</linearGradient>
<linearGradient id="paint4_linear" x1="6.60725" y1="10.1554" x2="26.3562" y2="22.3047" gradientUnits="userSpaceOnUse">
<stop stop-color="#FFC000"/>
<stop offset="0.0892206" stop-color="#FFBA00"/>
<stop offset="0.6812" stop-color="#FF9700"/>
<stop offset="1" stop-color="#FF8A00"/>
</linearGradient>
<linearGradient id="paint5_linear" x1="17.1438" y1="13.9997" x2="15.2828" y2="19.9946" gradientUnits="userSpaceOnUse">
<stop stop-color="#FFC000"/>
<stop offset="0.2638" stop-color="#FFBC00"/>
<stop offset="0.546" stop-color="#FFAF00"/>
<stop offset="0.8359" stop-color="#FF9A00"/>
<stop offset="1" stop-color="#FF8A00"/>
</linearGradient>
<linearGradient id="paint6_linear" x1="17.0679" y1="10.5099" x2="13.6264" y2="21.5979" gradientUnits="userSpaceOnUse">
<stop stop-color="#FFC000"/>
<stop offset="0.0546798" stop-color="#FFBB00"/>
<stop offset="0.4238" stop-color="#FFA000"/>
<stop offset="0.7509" stop-color="#FF9000"/>
<stop offset="1" stop-color="#FF8A00"/>
</linearGradient>
<linearGradient id="paint7_linear" x1="113.961" y1="15.396" x2="110.572" y2="16.3888" gradientUnits="userSpaceOnUse">
<stop stop-color="#FFC000"/>
<stop offset="1" stop-color="#FF8A00"/>
</linearGradient>
<linearGradient id="paint8_linear" x1="9.22864" y1="31.4885" x2="23.5972" y2="28.1606" gradientUnits="userSpaceOnUse">
<stop stop-color="#E240B4"/>
<stop offset="1" stop-color="#5227CA"/>
</linearGradient>
<linearGradient id="paint9_linear" x1="9.22864" y1="31.4885" x2="23.5972" y2="28.1606" gradientUnits="userSpaceOnUse">
<stop stop-color="#FFC000"/>
<stop offset="0.0892206" stop-color="#FFBA00"/>
<stop offset="0.6812" stop-color="#FF9700"/>
<stop offset="1" stop-color="#FF8A00"/>
</linearGradient>
<linearGradient id="paint10_linear" x1="17.6017" y1="39.9134" x2="8.15915" y2="11.1078" gradientUnits="userSpaceOnUse">
<stop stop-color="#E240B4"/>
<stop offset="0.9946" stop-color="#4227CA"/>
</linearGradient>
<linearGradient id="paint11_linear" x1="5.93848" y1="36.3815" x2="15.0021" y2="20.9053" gradientUnits="userSpaceOnUse">
<stop stop-color="#FFC000"/>
<stop offset="0.3889" stop-color="#FFA400"/>
<stop offset="0.7495" stop-color="#FF9100"/>
<stop offset="1" stop-color="#FF8A00"/>
</linearGradient>
<linearGradient id="paint12_linear" x1="18.8916" y1="29.8476" x2="-0.810288" y2="17.6325" gradientUnits="userSpaceOnUse">
<stop stop-color="#FFC000"/>
<stop offset="0.0892206" stop-color="#FFBA00"/>
<stop offset="0.6812" stop-color="#FF9700"/>
<stop offset="1" stop-color="#FF8A00"/>
</linearGradient>
<linearGradient id="paint13_linear" x1="8.36846" y1="25.9694" x2="10.2494" y2="19.9839" gradientUnits="userSpaceOnUse">
<stop stop-color="#FFC000"/>
<stop offset="0.2638" stop-color="#FFBC00"/>
<stop offset="0.546" stop-color="#FFAF00"/>
<stop offset="0.8359" stop-color="#FF9A00"/>
<stop offset="1" stop-color="#FF8A00"/>
</linearGradient>
<linearGradient id="paint14_linear" x1="8.43444" y1="29.4605" x2="11.914" y2="18.3873" gradientUnits="userSpaceOnUse">
<stop stop-color="#FFC000"/>
<stop offset="0.0546798" stop-color="#FFBB00"/>
<stop offset="0.4238" stop-color="#FFA000"/>
<stop offset="0.7509" stop-color="#FF9000"/>
<stop offset="1" stop-color="#FF8A00"/>
</linearGradient>
</defs>
</svg>
