<svg width="81" height="16" viewBox="0 0 81 16" fill="none" xmlns="http://www.w3.org/2000/svg">
<path fill-rule="evenodd" clip-rule="evenodd" d="M73 12.8589L77.944 16L76.632 10.08L81 6.09684L75.248 5.58316L73 0L70.752 5.58316L65 6.09684L69.368 10.08L68.056 16L73 12.8589Z" fill="#E4E4E4"/>
<path fill-rule="evenodd" clip-rule="evenodd" d="M57 12.8589L61.944 16L60.632 10.08L65 6.09684L59.248 5.58316L57 0L54.752 5.58316L49 6.09684L53.368 10.08L52.056 16L57 12.8589Z" fill="#FF9017"/>
<path fill-rule="evenodd" clip-rule="evenodd" d="M41 12.8589L45.944 16L44.632 10.08L49 6.09684L43.248 5.58316L41 0L38.752 5.58316L33 6.09684L37.368 10.08L36.056 16L41 12.8589Z" fill="#FF9017"/>
<path fill-rule="evenodd" clip-rule="evenodd" d="M25 12.8589L29.944 16L28.632 10.08L33 6.09684L27.248 5.58316L25 0L22.752 5.58316L17 6.09684L21.368 10.08L20.056 16L25 12.8589Z" fill="#FF9017"/>
<path fill-rule="evenodd" clip-rule="evenodd" d="M8.53333 12.8589L13.8069 16L12.4075 10.08L17.0667 6.09684L10.9312 5.58316L8.53333 0L6.13547 5.58316L0 6.09684L4.6592 10.08L3.25973 16L8.53333 12.8589Z" fill="#FF9017"/>
</svg>
