<svg width="12" height="12" viewBox="0 0 12 12" fill="none" xmlns="http://www.w3.org/2000/svg">
<path fill-rule="evenodd" clip-rule="evenodd" d="M9.00232 0.803836C9.92058 1.33979 10.6476 2.06682 11.1836 2.98505C11.7193 3.90328 11.9872 4.9062 11.9872 5.99363C11.9872 7.08096 11.7193 8.08382 11.1835 9.00216C10.6476 9.92039 9.92056 10.6476 9.0023 11.1834C8.08398 11.7193 7.08107 11.9873 5.99369 11.9873C4.90631 11.9873 3.9035 11.7193 2.98513 11.1834C2.06682 10.6474 1.33979 9.92039 0.803836 9.00216C0.267991 8.08374 0 7.08101 0 5.99363C0 4.9063 0.267909 3.90342 0.803918 2.98505C1.3399 2.06673 2.06693 1.33971 2.98524 0.803836C3.9035 0.267909 4.90639 0 5.9938 0C7.08131 0 8.0839 0.267909 9.00232 0.803836ZM8.12434 9.66948C8.77466 9.28969 9.2897 8.77446 9.6695 8.12413C10.0493 7.47381 10.2391 6.76362 10.2391 5.99363C10.2391 5.22358 10.0493 4.51339 9.6695 3.86307C9.28973 3.21274 8.77466 2.69762 8.12434 2.31783C7.47401 1.93801 6.76383 1.74817 5.99372 1.74817C5.22367 1.74817 4.51349 1.93801 3.86316 2.31783C3.21289 2.69759 2.69771 3.21274 2.31801 3.86307C1.93822 4.51339 1.74827 5.22358 1.74827 5.99363C1.74827 6.76362 1.93813 7.47381 2.31801 8.12413C2.6978 8.77446 3.21284 9.28966 3.86316 9.66948C4.51357 10.0493 5.22378 10.239 5.99372 10.239C6.76386 10.239 7.47401 10.0493 8.12434 9.66948Z" fill="url(#paint0_linear)"/>
<path fill-rule="evenodd" clip-rule="evenodd" d="M9.00232 0.803836C9.92058 1.33979 10.6476 2.06682 11.1836 2.98505C11.7193 3.90328 11.9872 4.9062 11.9872 5.99363C11.9872 7.08096 11.7193 8.08382 11.1835 9.00216C10.6476 9.92039 9.92056 10.6476 9.0023 11.1834C8.08398 11.7193 7.08107 11.9873 5.99369 11.9873C4.90631 11.9873 3.9035 11.7193 2.98513 11.1834C2.06682 10.6474 1.33979 9.92039 0.803836 9.00216C0.267991 8.08374 0 7.08101 0 5.99363C0 4.9063 0.267909 3.90342 0.803918 2.98505C1.3399 2.06673 2.06693 1.33971 2.98524 0.803836C3.9035 0.267909 4.90639 0 5.9938 0C7.08131 0 8.0839 0.267909 9.00232 0.803836ZM8.12434 9.66948C8.77466 9.28969 9.2897 8.77446 9.6695 8.12413C10.0493 7.47381 10.2391 6.76362 10.2391 5.99363C10.2391 5.22358 10.0493 4.51339 9.6695 3.86307C9.28973 3.21274 8.77466 2.69762 8.12434 2.31783C7.47401 1.93801 6.76383 1.74817 5.99372 1.74817C5.22367 1.74817 4.51349 1.93801 3.86316 2.31783C3.21289 2.69759 2.69771 3.21274 2.31801 3.86307C1.93822 4.51339 1.74827 5.22358 1.74827 5.99363C1.74827 6.76362 1.93813 7.47381 2.31801 8.12413C2.6978 8.77446 3.21284 9.28966 3.86316 9.66948C4.51357 10.0493 5.22378 10.239 5.99372 10.239C6.76386 10.239 7.47401 10.0493 8.12434 9.66948Z" fill="url(#paint1_linear)"/>
<path d="M6.74292 2.99677H6.2434C6.17045 2.99677 6.11075 3.02025 6.06381 3.06702C6.01718 3.11384 5.9937 3.17362 5.9937 3.24647V5.99362H4.24555C4.17265 5.99362 4.1129 6.01699 4.06605 6.06371C4.01925 6.11051 3.99585 6.17034 3.99585 6.24333V6.74276C3.99585 6.81563 4.01925 6.8755 4.06605 6.92227C4.11292 6.96904 4.17279 6.99241 4.24555 6.99241H6.74306C6.81582 6.99241 6.87571 6.96904 6.9224 6.92227C6.96917 6.8755 6.99273 6.81563 6.99273 6.74276V3.24647C6.99273 3.17368 6.96917 3.11392 6.9224 3.06702C6.87566 3.02025 6.81579 2.99677 6.74292 2.99677Z" fill="url(#paint2_linear)"/>
<path d="M6.74292 2.99677H6.2434C6.17045 2.99677 6.11075 3.02025 6.06381 3.06702C6.01718 3.11384 5.9937 3.17362 5.9937 3.24647V5.99362H4.24555C4.17265 5.99362 4.1129 6.01699 4.06605 6.06371C4.01925 6.11051 3.99585 6.17034 3.99585 6.24333V6.74276C3.99585 6.81563 4.01925 6.8755 4.06605 6.92227C4.11292 6.96904 4.17279 6.99241 4.24555 6.99241H6.74306C6.81582 6.99241 6.87571 6.96904 6.9224 6.92227C6.96917 6.8755 6.99273 6.81563 6.99273 6.74276V3.24647C6.99273 3.17368 6.96917 3.11392 6.9224 3.06702C6.87566 3.02025 6.81579 2.99677 6.74292 2.99677Z" fill="url(#paint3_linear)"/>
<defs>
<linearGradient id="paint0_linear" x1="-3.87197" y1="3.87199" x2="3.87202" y2="15.8592" gradientUnits="userSpaceOnUse">
<stop stop-color="#1738BC"/>
<stop offset="1" stop-color="#315EFB"/>
</linearGradient>
<linearGradient id="paint1_linear" x1="11.8314" y1="0.289897" x2="-1.62653" y2="4.25648" gradientUnits="userSpaceOnUse">
<stop stop-color="#FFC000"/>
<stop offset="1" stop-color="#FF8A00"/>
</linearGradient>
<linearGradient id="paint2_linear" x1="3.02783" y1="4.28739" x2="5.82815" y2="7.53862" gradientUnits="userSpaceOnUse">
<stop stop-color="#1738BC"/>
<stop offset="1" stop-color="#315EFB"/>
</linearGradient>
<linearGradient id="paint3_linear" x1="6.95377" y1="3.09339" x2="3.4673" y2="3.86414" gradientUnits="userSpaceOnUse">
<stop stop-color="#FFC000"/>
<stop offset="1" stop-color="#FF8A00"/>
</linearGradient>
</defs>
</svg>
