<svg width="18" height="22" viewBox="0 0 18 22" fill="none" xmlns="http://www.w3.org/2000/svg">
<path d="M17.9211 19.1123L15.6392 16.145C16.3786 15.9215 17.0173 15.4432 17.4444 14.7931C17.9818 13.8536 17.7388 12.7069 17.5037 11.5993C17.3615 11.0303 17.2764 10.4483 17.2498 9.86207C17.2764 9.27532 17.3614 8.69275 17.5037 8.12331C17.7373 7.01497 17.9818 5.86907 17.4444 4.93103C16.888 3.95848 15.7675 3.59852 14.6838 3.25107C14.1443 3.10072 13.6218 2.89376 13.1249 2.63355C12.674 2.33769 12.2553 1.99441 11.8758 1.60941C11.0718 0.854586 10.1602 0 9.00001 0C7.83979 0 6.92818 0.854586 6.12383 1.60903C5.74448 1.99413 5.32589 2.33755 4.87511 2.63355C4.37824 2.89324 3.85593 3.09968 3.31664 3.24955C2.23292 3.597 1.11245 3.95697 0.555958 4.92952C0.0185959 5.86907 0.26159 7.01572 0.49671 8.12331C0.638878 8.6928 0.723814 9.27532 0.750204 9.86207C0.723673 10.4488 0.638644 11.0314 0.496335 11.6008C0.262715 12.7092 0.0182209 13.8551 0.555583 14.7931C0.983261 15.4434 1.62267 15.9216 2.36267 16.1446L0.0789695 19.1119C-0.0481525 19.2773 -0.0186689 19.5156 0.144874 19.6442C0.223435 19.706 0.322995 19.7336 0.421712 19.7211L3.1029 19.3824L3.76476 21.725C3.80352 21.8623 3.91527 21.966 4.05388 21.9932C4.07736 21.9977 4.10122 22 4.12513 22C4.2409 22.0001 4.35026 21.946 4.42137 21.8536L6.81606 18.7379C7.40536 19.3182 8.17944 19.6678 9.00001 19.7241C9.82059 19.6678 10.5947 19.3182 11.184 18.7379L13.5787 21.8524C13.6495 21.9453 13.7589 21.9998 13.8749 22C13.8988 22 13.9227 21.9977 13.9461 21.9932C14.0848 21.966 14.1965 21.8623 14.2353 21.725L14.8971 19.3828L17.5783 19.7215C17.7838 19.7476 17.9713 19.6002 17.9971 19.3923C18.0095 19.2925 17.9821 19.1918 17.9211 19.1123ZM4.28262 20.798L3.73551 18.8612C3.68465 18.6816 3.51197 18.5662 3.32864 18.5892L1.22869 18.8548L3.11077 16.4074L3.31814 16.4746C3.85691 16.6246 4.37871 16.831 4.87511 17.0906C5.32604 17.3864 5.74471 17.7297 6.1242 18.1147L6.2532 18.2353L4.28262 20.798ZM9.00001 18.9655C8.13378 18.9655 7.40517 18.2828 6.63344 17.559C6.21359 17.1347 5.74982 16.7575 5.2501 16.4336C4.70641 16.1457 4.13408 15.9169 3.54276 15.7509C2.55166 15.4326 1.61531 15.1322 1.20432 14.4138C0.812078 13.7276 1.01457 12.7714 1.22944 11.7586C1.38408 11.1375 1.47483 10.502 1.50019 9.86207C1.47497 9.22213 1.38436 8.58659 1.22982 7.96552C1.01495 6.95314 0.812452 5.9969 1.20469 5.31034C1.61718 4.59193 2.55204 4.29152 3.54314 3.97328C4.13436 3.80723 4.7065 3.57837 5.2501 3.29052C5.74968 2.96668 6.21336 2.58936 6.63307 2.1651C7.40517 1.44138 8.13378 0.758621 9.00001 0.758621C9.86624 0.758621 10.5949 1.44138 11.3666 2.1651C11.7864 2.58941 12.2502 2.96668 12.7499 3.29052C13.2936 3.57841 13.8659 3.80728 14.4573 3.97328C15.4484 4.29152 16.3847 4.59193 16.7957 5.31034C17.1879 5.99652 16.9855 6.95276 16.7706 7.96552C16.6159 8.58659 16.5252 9.22213 16.4998 9.86207C16.5251 10.502 16.6157 11.1375 16.7702 11.7586C16.9851 12.771 17.1876 13.7272 16.7953 14.4138C16.3828 15.1322 15.448 15.4326 14.4569 15.7509C13.8657 15.9169 13.2935 16.1458 12.7499 16.4336C12.2503 16.7575 11.7867 17.1348 11.367 17.559C10.5949 18.2828 9.86624 18.9655 9.00001 18.9655ZM14.6733 18.5892C14.4899 18.5662 14.3172 18.6816 14.2664 18.8612L13.7174 20.798L11.7472 18.2357L11.8762 18.1151C12.2555 17.73 12.6741 17.3866 13.1249 17.0906C13.6218 16.8309 14.1441 16.6245 14.6834 16.4746L14.8908 16.4074L16.7732 18.8548L14.6733 18.5892Z" fill="white"/>
<path d="M17.9211 19.1123L15.6392 16.145C16.3786 15.9215 17.0173 15.4432 17.4444 14.7931C17.9818 13.8536 17.7388 12.7069 17.5037 11.5993C17.3615 11.0303 17.2764 10.4483 17.2498 9.86207C17.2764 9.27532 17.3614 8.69275 17.5037 8.12331C17.7373 7.01497 17.9818 5.86907 17.4444 4.93103C16.888 3.95848 15.7675 3.59852 14.6838 3.25107C14.1443 3.10072 13.6218 2.89376 13.1249 2.63355C12.674 2.33769 12.2553 1.99441 11.8758 1.60941C11.0718 0.854586 10.1602 0 9.00001 0C7.83979 0 6.92818 0.854586 6.12383 1.60903C5.74448 1.99413 5.32589 2.33755 4.87511 2.63355C4.37824 2.89324 3.85593 3.09968 3.31664 3.24955C2.23292 3.597 1.11245 3.95697 0.555958 4.92952C0.0185959 5.86907 0.26159 7.01572 0.49671 8.12331C0.638878 8.6928 0.723814 9.27532 0.750204 9.86207C0.723673 10.4488 0.638644 11.0314 0.496335 11.6008C0.262715 12.7092 0.0182209 13.8551 0.555583 14.7931C0.983261 15.4434 1.62267 15.9216 2.36267 16.1446L0.0789695 19.1119C-0.0481525 19.2773 -0.0186689 19.5156 0.144874 19.6442C0.223435 19.706 0.322995 19.7336 0.421712 19.7211L3.1029 19.3824L3.76476 21.725C3.80352 21.8623 3.91527 21.966 4.05388 21.9932C4.07736 21.9977 4.10122 22 4.12513 22C4.2409 22.0001 4.35026 21.946 4.42137 21.8536L6.81606 18.7379C7.40536 19.3182 8.17944 19.6678 9.00001 19.7241C9.82059 19.6678 10.5947 19.3182 11.184 18.7379L13.5787 21.8524C13.6495 21.9453 13.7589 21.9998 13.8749 22C13.8988 22 13.9227 21.9977 13.9461 21.9932C14.0848 21.966 14.1965 21.8623 14.2353 21.725L14.8971 19.3828L17.5783 19.7215C17.7838 19.7476 17.9713 19.6002 17.9971 19.3923C18.0095 19.2925 17.9821 19.1918 17.9211 19.1123ZM4.28262 20.798L3.73551 18.8612C3.68465 18.6816 3.51197 18.5662 3.32864 18.5892L1.22869 18.8548L3.11077 16.4074L3.31814 16.4746C3.85691 16.6246 4.37871 16.831 4.87511 17.0906C5.32604 17.3864 5.74471 17.7297 6.1242 18.1147L6.2532 18.2353L4.28262 20.798ZM9.00001 18.9655C8.13378 18.9655 7.40517 18.2828 6.63344 17.559C6.21359 17.1347 5.74982 16.7575 5.2501 16.4336C4.70641 16.1457 4.13408 15.9169 3.54276 15.7509C2.55166 15.4326 1.61531 15.1322 1.20432 14.4138C0.812078 13.7276 1.01457 12.7714 1.22944 11.7586C1.38408 11.1375 1.47483 10.502 1.50019 9.86207C1.47497 9.22213 1.38436 8.58659 1.22982 7.96552C1.01495 6.95314 0.812452 5.9969 1.20469 5.31034C1.61718 4.59193 2.55204 4.29152 3.54314 3.97328C4.13436 3.80723 4.7065 3.57837 5.2501 3.29052C5.74968 2.96668 6.21336 2.58936 6.63307 2.1651C7.40517 1.44138 8.13378 0.758621 9.00001 0.758621C9.86624 0.758621 10.5949 1.44138 11.3666 2.1651C11.7864 2.58941 12.2502 2.96668 12.7499 3.29052C13.2936 3.57841 13.8659 3.80728 14.4573 3.97328C15.4484 4.29152 16.3847 4.59193 16.7957 5.31034C17.1879 5.99652 16.9855 6.95276 16.7706 7.96552C16.6159 8.58659 16.5252 9.22213 16.4998 9.86207C16.5251 10.502 16.6157 11.1375 16.7702 11.7586C16.9851 12.771 17.1876 13.7272 16.7953 14.4138C16.3828 15.1322 15.448 15.4326 14.4569 15.7509C13.8657 15.9169 13.2935 16.1458 12.7499 16.4336C12.2503 16.7575 11.7867 17.1348 11.367 17.559C10.5949 18.2828 9.86624 18.9655 9.00001 18.9655ZM14.6733 18.5892C14.4899 18.5662 14.3172 18.6816 14.2664 18.8612L13.7174 20.798L11.7472 18.2357L11.8762 18.1151C12.2555 17.73 12.6741 17.3866 13.1249 17.0906C13.6218 16.8309 14.1441 16.6245 14.6834 16.4746L14.8908 16.4074L16.7732 18.8548L14.6733 18.5892Z" fill="url(#paint0_linear)"/>
<path d="M8.99996 3.03442C5.27213 3.03442 2.25012 6.09124 2.25012 9.86201C2.25012 13.6328 5.27213 16.6896 8.99996 16.6896C12.7278 16.6896 15.7498 13.6328 15.7498 9.86201C15.7455 6.09304 12.726 3.03883 8.99996 3.03442ZM8.99996 15.931C5.68635 15.931 3.0001 13.2138 3.0001 9.86201C3.0001 6.51023 5.68635 3.79304 8.99996 3.79304C12.3136 3.79304 14.9998 6.51023 14.9998 9.86201C14.9959 13.2122 12.312 15.927 8.99996 15.931Z" fill="white"/>
<path d="M8.99996 3.03442C5.27213 3.03442 2.25012 6.09124 2.25012 9.86201C2.25012 13.6328 5.27213 16.6896 8.99996 16.6896C12.7278 16.6896 15.7498 13.6328 15.7498 9.86201C15.7455 6.09304 12.726 3.03883 8.99996 3.03442ZM8.99996 15.931C5.68635 15.931 3.0001 13.2138 3.0001 9.86201C3.0001 6.51023 5.68635 3.79304 8.99996 3.79304C12.3136 3.79304 14.9998 6.51023 14.9998 9.86201C14.9959 13.2122 12.312 15.927 8.99996 15.931Z" fill="url(#paint1_linear)"/>
<path d="M13.3266 8.27776C13.1855 8.0817 12.9603 7.96568 12.7206 7.96558H10.4249L9.71244 5.75534C9.58311 5.3573 9.15928 5.14072 8.76577 5.27153C8.53942 5.34678 8.36186 5.52638 8.28747 5.75534L7.57686 7.96558H5.27929C4.86506 7.96539 4.52912 8.30483 4.52893 8.72383C4.52879 8.96658 4.64354 9.19469 4.83755 9.33755L6.69601 10.7031L5.98615 12.9133C5.85809 13.3118 6.07366 13.7398 6.46754 13.8693C6.69596 13.9444 6.94608 13.9043 7.14037 13.7614L8.99995 12.3963L10.8588 13.7618C11.1206 13.9586 11.4789 13.9586 11.7408 13.7618C12.0065 13.5708 12.1171 13.2262 12.013 12.9137L11.3031 10.7031L13.1616 9.33755C13.4965 9.091 13.5704 8.61648 13.3266 8.27776ZM10.6417 10.2517C10.5101 10.3484 10.4552 10.5198 10.5055 10.6761L11.2998 13.1485L9.22045 11.6206C9.08906 11.5241 8.91122 11.5241 8.77983 11.6206L6.70051 13.1485L7.49436 10.6761C7.54456 10.5199 7.48963 10.3487 7.35824 10.2521L5.27929 8.7242H7.8491C8.01157 8.7242 8.15552 8.61838 8.20572 8.4621L8.99995 5.98976L9.79418 8.46172C9.84439 8.618 9.98834 8.72383 10.1508 8.72383L12.7206 8.7242L10.6417 10.2517Z" fill="white"/>
<path d="M13.3266 8.27776C13.1855 8.0817 12.9603 7.96568 12.7206 7.96558H10.4249L9.71244 5.75534C9.58311 5.3573 9.15928 5.14072 8.76577 5.27153C8.53942 5.34678 8.36186 5.52638 8.28747 5.75534L7.57686 7.96558H5.27929C4.86506 7.96539 4.52912 8.30483 4.52893 8.72383C4.52879 8.96658 4.64354 9.19469 4.83755 9.33755L6.69601 10.7031L5.98615 12.9133C5.85809 13.3118 6.07366 13.7398 6.46754 13.8693C6.69596 13.9444 6.94608 13.9043 7.14037 13.7614L8.99995 12.3963L10.8588 13.7618C11.1206 13.9586 11.4789 13.9586 11.7408 13.7618C12.0065 13.5708 12.1171 13.2262 12.013 12.9137L11.3031 10.7031L13.1616 9.33755C13.4965 9.091 13.5704 8.61648 13.3266 8.27776ZM10.6417 10.2517C10.5101 10.3484 10.4552 10.5198 10.5055 10.6761L11.2998 13.1485L9.22045 11.6206C9.08906 11.5241 8.91122 11.5241 8.77983 11.6206L6.70051 13.1485L7.49436 10.6761C7.54456 10.5199 7.48963 10.3487 7.35824 10.2521L5.27929 8.7242H7.8491C8.01157 8.7242 8.15552 8.61838 8.20572 8.4621L8.99995 5.98976L9.79418 8.46172C9.84439 8.618 9.98834 8.72383 10.1508 8.72383L12.7206 8.7242L10.6417 10.2517Z" fill="url(#paint2_linear)"/>
<defs>
<linearGradient id="paint0_linear" x1="17.766" y1="0.532042" x2="-2.99085" y2="5.5376" gradientUnits="userSpaceOnUse">
<stop stop-color="#FFC000"/>
<stop offset="1" stop-color="#FF8A00"/>
</linearGradient>
<linearGradient id="paint1_linear" x1="15.5743" y1="3.36466" x2="0.390891" y2="7.78888" gradientUnits="userSpaceOnUse">
<stop stop-color="#FFC000"/>
<stop offset="1" stop-color="#FF8A00"/>
</linearGradient>
<linearGradient id="paint2_linear" x1="13.3541" y1="5.44322" x2="3.36528" y2="8.47738" gradientUnits="userSpaceOnUse">
<stop stop-color="#FFC000"/>
<stop offset="1" stop-color="#FF8A00"/>
</linearGradient>
</defs>
</svg>
