<svg width="16" height="13" viewBox="0 0 16 13" fill="none" xmlns="http://www.w3.org/2000/svg">
<path d="M16 1.54319C15.3705 1.81393 14.7409 1.98302 14.1117 2.05093C14.8224 1.62455 15.3031 1.02218 15.5535 0.243863C14.9035 0.629571 14.2099 0.893454 13.4722 1.03565C12.8224 0.345313 12.0239 0 11.0761 0C10.1693 0 9.3961 0.319746 8.75625 0.959381C8.11676 1.59898 7.79698 2.37217 7.79698 3.27907C7.79698 3.52268 7.824 3.7732 7.87819 4.03036C6.53805 3.96269 5.2809 3.62598 4.10653 3.02024C2.93223 2.41442 1.93562 1.6073 1.11669 0.598884C0.818887 1.10638 0.669931 1.65808 0.669931 2.25366C0.669931 2.81542 0.80189 3.33664 1.06599 3.81718C1.3299 4.29766 1.68532 4.68678 2.13204 4.98462C1.60403 4.96428 1.10997 4.82549 0.649804 4.56829V4.6089C0.649804 5.40084 0.898539 6.09612 1.39594 6.69529C1.89341 7.29439 2.5212 7.67149 3.27918 7.82724C2.99488 7.90159 2.70717 7.93882 2.4162 7.93882C2.22667 7.93882 2.02021 7.92193 1.7969 7.88833C2.0067 8.54471 2.39251 9.08428 2.9542 9.5075C3.516 9.93051 4.15222 10.1486 4.8629 10.1624C3.67175 11.0963 2.31475 11.5632 0.791898 11.5632C0.500812 11.5632 0.236929 11.5499 0 11.5227C1.52288 12.504 3.20137 12.9946 5.03557 12.9946C6.1997 12.9946 7.29279 12.8104 8.31447 12.4414C9.33664 12.0727 10.2097 11.5785 10.9339 10.9591C11.658 10.3399 12.2825 9.62752 12.8069 8.82214C13.3314 8.0167 13.7222 7.17583 13.9796 6.29938C14.2367 5.42274 14.3653 4.54475 14.3653 3.66474C14.3653 3.47521 14.3619 3.33315 14.3551 3.23835C14.9983 2.77157 15.5465 2.20633 16 1.54319Z" fill="white"/>
</svg>
